<mxfile host="app.diagrams.net" modified="2024-07-01T15:46:35.453Z" agent="Mozilla/5.0 (Windows NT 10.0; Win64; x64) AppleWebKit/537.36 (KHTML, like Gecko) Chrome/126.0.0.0 Safari/537.36" etag="yQXuEl290OxyX6LWX4Xq" version="24.6.4" type="device">
  <diagram name="Page-1" id="FrNZHTJfqQxrG29hOEG-">
    <mxGraphModel dx="3730" dy="3075" grid="1" gridSize="10" guides="1" tooltips="1" connect="1" arrows="1" fold="1" page="1" pageScale="1" pageWidth="827" pageHeight="1169" math="0" shadow="0">
      <root>
        <mxCell id="0" />
        <mxCell id="1" parent="0" />
        <mxCell id="v25eYg1_x8J9-jdTeE8G-5" value="" style="edgeStyle=orthogonalEdgeStyle;rounded=0;orthogonalLoop=1;jettySize=auto;html=1;" edge="1" parent="1" source="v25eYg1_x8J9-jdTeE8G-1">
          <mxGeometry relative="1" as="geometry">
            <mxPoint x="-2740" y="-1940" as="targetPoint" />
          </mxGeometry>
        </mxCell>
        <mxCell id="v25eYg1_x8J9-jdTeE8G-1" value="Start&lt;div&gt;&lt;br&gt;&lt;/div&gt;" style="rounded=1;whiteSpace=wrap;html=1;" vertex="1" parent="1">
          <mxGeometry x="-2800" y="-2040" width="120" height="50" as="geometry" />
        </mxCell>
        <mxCell id="v25eYg1_x8J9-jdTeE8G-2" value="end&lt;div&gt;&lt;br&gt;&lt;/div&gt;" style="rounded=1;whiteSpace=wrap;html=1;" vertex="1" parent="1">
          <mxGeometry x="-2800" y="-1830" width="120" height="60" as="geometry" />
        </mxCell>
        <mxCell id="v25eYg1_x8J9-jdTeE8G-6" value="" style="edgeStyle=orthogonalEdgeStyle;rounded=0;orthogonalLoop=1;jettySize=auto;html=1;" edge="1" parent="1" target="v25eYg1_x8J9-jdTeE8G-2">
          <mxGeometry relative="1" as="geometry">
            <mxPoint x="-2740" y="-1880" as="sourcePoint" />
          </mxGeometry>
        </mxCell>
        <mxCell id="v25eYg1_x8J9-jdTeE8G-7" value="" style="shape=card;whiteSpace=wrap;html=1;" vertex="1" parent="1">
          <mxGeometry x="-2820" y="-1930" width="140" height="60" as="geometry" />
        </mxCell>
      </root>
    </mxGraphModel>
  </diagram>
</mxfile>
